<?xml version="1.0" encoding="utf-8"?>
<!-- Generator: Adobe Illustrator 16.0.0, SVG Export Plug-In . SVG Version: 6.00 Build 0)  -->
<!DOCTYPE svg PUBLIC "-//W3C//DTD SVG 1.1//EN" "http://www.w3.org/Graphics/SVG/1.1/DTD/svg11.dtd">
<svg version="1.1" id="Layer_1" xmlns="http://www.w3.org/2000/svg" xmlns:xlink="http://www.w3.org/1999/xlink" x="0px" y="0px"
	 width="720px" height="720px" viewBox="0 0 720 720" enable-background="new 0 0 720 720" xml:space="preserve">
<g id="Layer_1_1_">
	<circle fill="#0C0C0C" cx="360" cy="360" r="334.969"/>
</g>
<g id="Layer_2_1_">
	<g>
		<path fill="none" stroke="#FAFAFA" stroke-width="12" stroke-miterlimit="10" d="M325.969,350.578
			c7.734,3.375,14.625,7.172,20.391,12.656c11.672,11.391,16.594,25.594,17.578,41.344c1.406,23.484-5.484,44.156-22.219,61.172
			c-11.109,11.109-24.609,17.016-39.797,19.406c-10.266,1.688-20.672,2.391-31.078,2.391c-35.578,0-71.297-0.141-106.734,0.141
			c-3.375,0-4.219-0.844-4.219-4.219c0.141-82.266,0.141-164.531,0-246.797c0-3.656,0.984-4.359,4.5-4.359
			c37.969,0.141,76.078,0.141,113.906,0.141c12.375,0,24.469,1.547,36.141,5.484c25.031,8.438,40.781,29.391,41.625,55.828
			c0.281,8.016-0.141,15.891-2.109,23.766c-3.375,13.359-11.391,23.344-23.062,30.375
			C329.344,348.609,327.938,349.312,325.969,350.578z M217.125,408.938c0,10.266,0,20.531,0,30.797c0,2.109,0.141,3.375,2.812,3.375
			c19.547-0.141,39.234,0.141,58.781-0.422c10.547-0.281,20.25-3.656,26.578-13.078c6.469-9.422,6.891-19.969,5.203-30.797
			c-1.266-8.297-5.906-14.344-13.219-18.422c-6.047-3.375-12.516-4.781-19.266-4.781c-19.266-0.281-38.672-0.281-57.938-0.422
			c-2.531,0-3.094,0.984-3.094,3.234C217.125,388.688,217.125,398.812,217.125,408.938z M246.656,333c7.453,0,14.906,0,22.359,0
			c6.75,0,13.5-0.703,20.109-2.953c16.875-5.906,23.344-29.391,11.953-43.312c-5.344-6.609-12.797-7.734-20.391-8.719
			c-20.25-2.672-40.781-0.844-61.031-1.406c-2.391-0.141-2.531,1.125-2.531,2.953c0,16.875,0.141,33.469,0,50.344
			c0,2.391,0.703,3.234,3.234,3.234C229.078,333,237.938,333,246.656,333z"/>
		<path fill="none" stroke="#FAFAFA" stroke-width="12" stroke-miterlimit="10" d="M495.281,401.766
			c-20.25,0-40.5,0.141-60.891-0.141c-3.375,0-4.359,0.844-3.938,4.219c1.688,13.922,6.188,26.016,18.422,34.312
			c12.656,8.438,39.516,9.984,51.891-1.969c2.391-2.25,4.922-4.359,6.188-7.312c1.969-4.219,4.922-5.344,9.422-5.062
			c12.656,0.422,25.312,0.141,37.969,0.141c2.812,0,3.375,0.703,2.812,3.375c-2.953,13.5-10.828,23.906-20.391,33.328
			c-14.344,14.062-32.062,20.531-51.609,22.5c-18.281,1.828-35.859-0.422-52.594-8.016c-27.984-12.516-43.875-33.891-47.953-64.406
			c-2.812-22.219-2.531-44.156,4.922-65.531c9-26.156,27.141-43.172,53.438-51.328c21.797-6.609,43.734-5.625,65.109,2.25
			c22.781,8.438,36.984,25.312,45.422,47.531c6.609,17.156,6.75,35.156,6.75,53.156c0,2.953-1.688,2.672-3.656,2.672
			c-11.672,0-23.203,0-34.875,0C513.141,401.766,504.141,401.766,495.281,401.766z M471.656,369.984c12.375,0,24.75,0,37.125,0
			c1.266,0,3.094,0.844,2.812-1.969c-1.406-14.203-7.172-25.875-20.391-32.203c-14.062-6.609-28.547-6.75-42.047,1.688
			c-10.688,6.609-14.906,17.578-17.297,29.391c-0.562,2.672,0.562,3.094,2.812,3.094
			C447.188,369.984,459.422,369.984,471.656,369.984z"/>
		<path fill="none" stroke="#FAFAFA" stroke-width="12" stroke-miterlimit="10" d="M471.234,268.734
			c-15.469,0-30.938-0.141-46.406,0.141c-2.953,0-3.938-0.844-3.797-3.797c0.281-6.188,0.141-12.516,0-18.844
			c-0.141-2.531,0.844-3.234,3.234-3.234c31.5,0.141,62.859,0.141,94.359,0c2.25,0,2.953,0.703,2.953,2.953
			c-0.141,6.469-0.141,12.797,0,19.266c0.141,2.812-0.844,3.656-3.656,3.656C502.453,268.594,486.844,268.734,471.234,268.734z"/>
	</g>
</g>
</svg>
