<?xml version="1.0" encoding="utf-8"?>
<!-- Generator: Adobe Illustrator 16.0.0, SVG Export Plug-In . SVG Version: 6.00 Build 0)  -->
<!DOCTYPE svg PUBLIC "-//W3C//DTD SVG 1.1//EN" "http://www.w3.org/Graphics/SVG/1.1/DTD/svg11.dtd">
<svg version="1.1" id="Layer_1" xmlns="http://www.w3.org/2000/svg" xmlns:xlink="http://www.w3.org/1999/xlink" x="0px" y="0px"
	 width="454.54px" height="452.298px" viewBox="0 0 454.54 452.298" enable-background="new 0 0 454.54 452.298"
	 xml:space="preserve">
<g>
	<path d="M230.161,0C105.499-0.016,4.565,100.94,4.543,225.661C4.521,350.534,105.145,451.221,230.044,451.298
		c124.805,0.076,225.635-100.695,225.641-225.514C455.693,101.063,354.76,0.018,230.161,0z M277.493,154.721
		c0.045-0.328,0.002-0.672,0.006-1.008c0.25-18.537-1.884-14.949,14.669-15.143c18.547-0.213,37.105,0.211,55.646-0.191
		c6.36-0.137,8.048,1.963,7.857,8.066c-0.609,19.383,2.062,15.174-15.26,15.596c-8.091,0.195-16.19,0.031-24.285,0.031
		c-10.454,0-20.924-0.312-31.358,0.125C278.897,162.444,276.682,160.376,277.493,154.721z M237.538,271.452
		c-5.109,27.559-25.523,43.793-57.964,44.508c-30.738,0.678-61.504,0.064-92.257,0.26c-5.131,0.031-7.078-1.295-7.062-6.791
		c0.172-58.465,0.157-116.928,0.016-175.393c-0.01-4.764,1.267-6.447,6.223-6.412c32.778,0.238,65.584-0.557,98.332,0.471
		c32.926,1.033,53.283,29.393,45.523,61.199c-2.794,11.465-10.159,18.619-22.144,23.674
		C232.388,221.819,242.721,243.501,237.538,271.452z M384.269,253.483c-1.031,4.457-3.762,3.971-6.731,3.977
		c-14.193,0.027-28.382,0.012-42.575,0.016c-14.193,0-28.391,0.205-42.576-0.107c-5.129-0.113-6.372,1.609-5.714,6.434
		c1.372,10.078,6.002,17.781,15.161,22.459c17.859,9.121,37.25,3.639,47.31-13.598c1.249-2.145,2.417-2.803,4.594-2.791
		c8.111,0.043,16.229,0.238,24.326-0.066c4.832-0.182,4.546,2.58,4.215,5.764c-1.613,15.477-8.479,28.047-22.599,34.914
		c-28.219,13.719-57.031,13.734-84.398-1.672c-25.396-14.297-35.646-49.525-26.007-82.703
		c12.781-44.004,62.99-64.717,103.626-42.752C373.804,194.655,389.612,230.395,384.269,253.483z"/>
	<path d="M175.96,232.069c-14.836-0.314-29.695,0.266-44.521-0.227c-6.606-0.221-7.954,2.281-7.74,8.213
		c0.402,11.117,0.741,22.307-0.091,33.375c-0.613,8.152,2.575,9.656,9.661,9.053c6.696-0.572,13.481-0.123,20.228-0.133
		c7.421-0.012,14.846,0.146,22.263-0.043c15.119-0.391,22.25-8.045,22.417-23.779C198.357,241.542,190.899,232.387,175.96,232.069z"
		/>
	<path fill="#010101" d="M125.732,201.346c5.293,4.828,18.489,1.002,28.192,1.002c0,0.234,0,0.471,0.002,0.707
		c6.732,0,13.472,0.096,20.204-0.02c12.914-0.225,17.542-5.904,17.594-21.379c0.045-14.529-4.818-20.506-17.301-20.678
		c-13.128-0.182-26.312,0.652-39.379-0.271c-9.659-0.68-12.314,2.762-11.341,11.752C124.78,182.364,119.6,195.747,125.732,201.346z"
		/>
	<path fill="#010101" d="M318.192,203.081c-14.919,0.24-28.936,11.238-31.271,24.078c-0.87,4.789,1.541,4.914,4.969,4.877
		c8.42-0.084,16.844-0.027,25.264-0.027c8.422-0.002,16.85-0.16,25.264,0.062c4.827,0.123,5.478-1.729,4.596-6.113
		C344.115,211.497,333.453,202.833,318.192,203.081z"/>
</g>
</svg>
