<?xml version="1.0" encoding="utf-8"?>
<!-- Generator: Adobe Illustrator 16.0.0, SVG Export Plug-In . SVG Version: 6.00 Build 0)  -->
<!DOCTYPE svg PUBLIC "-//W3C//DTD SVG 1.1//EN" "http://www.w3.org/Graphics/SVG/1.1/DTD/svg11.dtd">
<svg version="1.1" id="Layer_1" xmlns="http://www.w3.org/2000/svg" xmlns:xlink="http://www.w3.org/1999/xlink" x="0px" y="0px"
	 width="232.764px" height="245.388px" viewBox="0 0 232.764 245.388" enable-background="new 0 0 232.764 245.388"
	 xml:space="preserve">
<g>
	<path fill-rule="evenodd" clip-rule="evenodd" d="M115.619,232.388C54.097,232.35,4.532,182.755,4.543,121.245
		C4.554,59.811,54.272,10.083,115.677,10.091c61.374,0.008,111.091,49.781,111.087,111.214
		C226.761,182.788,177.095,232.426,115.619,232.388z"/>
	<path fill-rule="evenodd" clip-rule="evenodd" fill="#FEFEFE" d="M104.863,114.993c11.911,4.36,17.001,15.04,14.448,28.808
		c-2.517,13.575-12.572,21.571-28.552,21.923c-15.141,0.334-30.295,0.032-45.443,0.128c-2.528,0.016-3.487-0.637-3.479-3.345
		c0.085-28.798,0.077-57.595,0.008-86.394c-0.005-2.347,0.624-3.176,3.065-3.158c16.146,0.117,32.305-0.275,48.436,0.231
		c16.219,0.509,26.246,14.479,22.424,30.146C114.394,108.979,110.766,112.503,104.863,114.993z"/>
	<path fill-rule="evenodd" clip-rule="evenodd" fill="#FEFEFE" d="M167.299,136.916c-6.991,0-13.984,0.101-20.972-0.053
		c-2.526-0.056-3.138,0.793-2.814,3.169c0.676,4.965,2.956,8.759,7.468,11.063c8.797,4.493,18.348,1.792,23.303-6.698
		c0.616-1.056,1.191-1.381,2.263-1.375c3.995,0.022,7.994,0.117,11.983-0.032c2.379-0.09,2.239,1.271,2.076,2.839
		c-0.795,7.623-4.177,13.815-11.132,17.197c-13.9,6.758-28.092,6.766-41.572-0.823c-12.51-7.042-17.559-24.395-12.811-40.737
		c6.296-21.675,31.027-31.878,51.044-21.059c10.297,5.565,18.083,23.17,15.451,34.543c-0.508,2.195-1.852,1.956-3.315,1.959
		C181.28,136.922,174.29,136.915,167.299,136.916z"/>
	<path fill-rule="evenodd" clip-rule="evenodd" fill="#FBFBFB" d="M158.022,89.924c-5.15,0-10.307-0.155-15.447,0.061
		c-2.892,0.121-3.983-0.897-3.584-3.682c0.023-0.163,0.001-0.332,0.003-0.498c0.123-9.13-0.927-7.363,7.226-7.458
		c9.136-0.105,18.277,0.104,27.41-0.094c3.133-0.068,3.964,0.967,3.87,3.973c-0.3,9.547,1.016,7.474-7.516,7.682
		C165.998,90.005,162.009,89.924,158.022,89.924z"/>
	<path fill-rule="evenodd" clip-rule="evenodd" d="M77.914,149.169c-3.323,0.005-6.665-0.216-9.964,0.065
		c-3.49,0.298-5.06-0.443-4.758-4.459c0.41-5.452,0.243-10.964,0.045-16.439c-0.106-2.922,0.558-4.155,3.812-4.046
		c7.303,0.243,14.622-0.043,21.93,0.112c7.358,0.156,11.032,4.666,10.943,13.032c-0.082,7.751-3.595,11.522-11.042,11.714
		C85.227,149.241,81.57,149.163,77.914,149.169z"/>
	<path fill-rule="evenodd" clip-rule="evenodd" fill="#010101" d="M78.124,109.762c-4.779,0-11.279,1.885-13.886-0.494
		c-3.021-2.757-0.469-9.349-0.999-14.228c-0.48-4.429,0.828-6.124,5.585-5.789c6.437,0.455,12.931,0.045,19.398,0.134
		c6.148,0.085,8.544,3.028,8.521,10.185c-0.025,7.622-2.304,10.42-8.666,10.53c-3.316,0.058-6.635,0.01-9.952,0.01
		C78.124,109.994,78.124,109.878,78.124,109.762z"/>
	<path fill-rule="evenodd" clip-rule="evenodd" fill="#010101" d="M158.527,124.372c-4.148,0-8.297-0.027-12.445,0.014
		c-1.688,0.018-2.876-0.043-2.447-2.403c1.15-6.324,8.055-11.742,15.403-11.86c7.518-0.122,12.77,4.145,14.197,11.268
		c0.434,2.161,0.114,3.073-2.264,3.012C166.826,124.293,162.675,124.371,158.527,124.372z"/>
</g>
</svg>
